<?xml version="1.0" standalone="no"?>
<!DOCTYPE svg PUBLIC "-//W3C//DTD SVG 20010904//EN"
 "http://www.w3.org/TR/2001/REC-SVG-20010904/DTD/svg10.dtd">
<svg version="1.0" xmlns="http://www.w3.org/2000/svg"
 width="1200.000000pt" height="1200.000000pt" viewBox="0 0 1200.000000 1200.000000"
 preserveAspectRatio="xMidYMid meet">
<metadata>
Created by potrace 1.11, written by Peter Selinger 2001-2013
</metadata>
<g transform="translate(0.000000,1200.000000) scale(0.100000,-0.100000)"
fill="#000000" stroke="none">
<path d="M0 6000 l0 -6000 6000 0 6000 0 0 6000 0 6000 -6000 0 -6000 0 0
-6000z m8127 3388 l233 -233 0 -1900 0 -1900 -237 -237 -238 -238 -1900 0
-1900 0 -232 232 -233 233 0 1905 0 1905 232 232 233 233 1905 0 1905 0 232
-232z m-5429 -5275 c39 -9 72 -20 72 -24 0 -3 -9 -27 -21 -53 -16 -37 -24 -46
-39 -41 -80 26 -216 31 -264 11 -61 -25 -97 -99 -81 -163 10 -42 90 -112 190
-167 231 -126 307 -220 292 -363 -18 -178 -184 -277 -422 -252 -82 9 -211 44
-221 61 -3 5 2 31 12 59 14 37 22 48 34 43 51 -22 134 -43 191 -49 178 -19
296 98 233 231 -22 46 -65 78 -212 160 -201 111 -258 185 -250 322 3 55 10 79
34 118 33 54 109 107 178 123 54 13 183 6 274 -16z m3323 -12 c61 -62 19 -161
-69 -161 -51 0 -92 43 -92 97 0 49 45 93 95 93 27 0 44 -8 66 -29z m2898 14
c88 -45 50 -175 -51 -175 -56 0 -88 34 -88 94 0 37 5 48 31 70 34 29 67 33
108 11z m-5497 -457 c3 -388 3 -393 26 -429 31 -51 68 -65 138 -50 31 6 60 9
64 6 5 -3 15 -25 23 -49 l15 -45 -50 -17 c-106 -35 -219 -16 -286 48 -62 61
-72 111 -72 358 l0 220 -65 0 -65 0 0 43 0 44 63 14 62 14 3 96 3 95 62 21
c34 12 65 22 69 22 4 1 8 -176 10 -391z m1822 -421 c29 -58 70 -74 147 -58 34
7 62 11 64 9 1 -2 9 -24 18 -50 l15 -47 -50 -17 c-112 -37 -232 -13 -295 59
-54 61 -63 113 -63 354 l0 213 -65 0 -65 0 0 43 0 44 63 14 62 14 3 96 3 96
67 20 67 19 5 -386 c5 -353 7 -388 24 -423z m-807 578 c75 -22 126 -64 159
-132 29 -58 29 -59 35 -313 4 -140 10 -265 14 -277 7 -22 5 -23 -49 -23 -62 0
-90 18 -102 65 -3 14 -7 25 -9 25 -2 0 -18 -14 -36 -32 -53 -48 -104 -68 -185
-68 -90 0 -163 33 -202 93 -38 57 -42 155 -10 212 40 68 151 117 316 140 48 6
52 5 52 -14 0 -38 -56 -88 -113 -101 -66 -14 -95 -33 -112 -74 -34 -81 37
-158 129 -141 45 9 120 56 142 90 14 22 16 46 12 173 -5 167 -18 210 -77 249
-41 28 -140 31 -216 8 -27 -8 -50 -13 -50 -12 -1 1 -9 22 -19 46 -21 54 -17
59 71 82 84 22 184 24 250 4z m2327 4 c32 -6 69 -14 82 -19 23 -9 23 -9 7 -57
-9 -26 -17 -49 -18 -51 -2 -2 -21 2 -43 8 -63 16 -158 15 -186 -4 -45 -29 -46
-86 -3 -126 12 -12 66 -44 119 -71 144 -75 198 -138 198 -234 0 -74 -84 -171
-168 -195 -82 -22 -245 -5 -323 36 l-28 14 16 47 c9 27 17 49 18 51 2 2 32 -6
67 -16 60 -19 111 -25 181 -23 42 1 87 50 87 94 0 47 -42 83 -165 143 -174 84
-222 184 -149 310 51 89 157 121 308 93z m1032 -8 c44 -20 74 -56 92 -110 8
-23 12 -133 12 -332 l0 -299 -74 0 -75 0 -3 293 c-4 364 1 349 -123 345 -72
-3 -87 0 -111 18 -38 28 -39 38 -7 54 108 51 219 63 289 31z m476 -9 c19 -12
46 -43 61 -71 l27 -49 0 -306 0 -306 -75 0 -75 0 0 283 c0 248 -2 286 -18 317
l-17 35 -97 0 c-88 0 -99 2 -122 24 -33 31 -32 35 2 51 115 55 246 64 314 22z
m1528 17 c55 -12 58 -18 34 -78 l-15 -38 -89 5 c-103 6 -136 -4 -179 -53 -47
-54 -64 -122 -59 -233 3 -74 9 -107 26 -138 44 -85 119 -122 211 -104 28 5 60
14 71 20 31 17 38 12 55 -41 20 -60 20 -60 -65 -85 -75 -22 -197 -15 -266 15
-205 90 -269 418 -119 614 81 106 233 151 395 116z m-6125 -59 l0 -55 -42 -3
c-55 -4 -108 20 -133 60 -34 56 -31 59 78 56 l97 -3 0 -55z m1803 3 l-3 -58
-35 -3 c-56 -5 -111 18 -137 57 -39 58 -35 61 77 61 l101 0 -3 -57z m552 -318
l0 -375 -75 0 -75 0 0 375 0 375 75 0 75 0 0 -375z m1380 338 l25 -36 3 -339
3 -338 -81 0 -80 0 0 333 c0 182 -4 349 -9 369 -5 20 -6 39 -3 42 3 4 30 6 61
6 53 0 57 -2 81 -37z m1540 -338 l0 -375 -80 0 -80 0 0 375 0 375 80 0 80 0 0
-375z"/>
<path d="M4560 7250 l0 -1420 1425 0 1425 0 0 1420 0 1420 -1425 0 -1425 0 0
-1420z"/>
</g>
</svg>
