<?xml version="1.0" standalone="no"?><!-- Generator: Gravit.io --><svg xmlns="http://www.w3.org/2000/svg" xmlns:xlink="http://www.w3.org/1999/xlink" style="isolation:isolate" viewBox="0 0 500 500" width="500" height="500"><defs><clipPath id="_clipPath_C2pgOEp9AkeAcbjRgPSGOkar8ThTGeoD"><rect width="500" height="500"/></clipPath></defs><g clip-path="url(#_clipPath_C2pgOEp9AkeAcbjRgPSGOkar8ThTGeoD)"><g style="isolation:isolate"><g><linearGradient id="_lgradient_10" x1="0" y1="0.5" x2="1" y2="0.5" gradientTransform="matrix(-400,0,0,-50,400,450)" gradientUnits="userSpaceOnUse"><stop offset="1.7391304347826086%" stop-opacity="1" style="stop-color:rgb(255,255,255)"/><stop offset="100%" stop-opacity="1" style="stop-color:rgb(215,216,217)"/></linearGradient><path d=" M 0 450 L 50 400 L 400 400 L 400 450 L 0 450 Z " fill="url(#_lgradient_10)"/><linearGradient id="_lgradient_11" x1="0.4931571218795892" y1="0.05215206395823138" x2="0.5066666666666667" y2="0.9377777777777778" gradientTransform="matrix(50,0,0,450,0,0)" gradientUnits="userSpaceOnUse"><stop offset="1.3043478260869565%" stop-opacity="1" style="stop-color:rgb(255,255,255)"/><stop offset="100%" stop-opacity="1" style="stop-color:rgb(215,216,217)"/></linearGradient><path d=" M 50 0 L 0 50 L 0 450 L 50 400 L 50 0 Z " fill="url(#_lgradient_11)"/><linearGradient id="_lgradient_12" x1="0.5340874811463047" y1="0.9591691258443178" x2="0.499396681749623" y2="0.0007226703390386113" gradientTransform="matrix(50,0,0,400,400,100)" gradientUnits="userSpaceOnUse"><stop offset="2.1739130434782608%" stop-opacity="1" style="stop-color:rgb(255,255,255)"/><stop offset="98.26086956521739%" stop-opacity="1" style="stop-color:rgb(215,216,217)"/></linearGradient><path d=" M 400 450 L 450 500 L 450 100 L 400 100 L 400 450 Z " fill="url(#_lgradient_12)"/><path d=" M 100 400 L 50 400 L 50 0 L 100 50 L 100 400 Z " fill="rgb(215,216,217)"/><linearGradient id="_lgradient_13" x1="0" y1="0.5" x2="1" y2="0.5" gradientTransform="matrix(450,0,0,50,50,0)" gradientUnits="userSpaceOnUse"><stop offset="2.1739130434782608%" stop-opacity="1" style="stop-color:rgb(215,216,217)"/><stop offset="97.82608695652173%" stop-opacity="1" style="stop-color:rgb(255,255,255)"/></linearGradient><path d=" M 500 50 L 450 0 L 50 0 L 100 50 L 500 50 Z " fill="url(#_lgradient_13)"/><linearGradient id="_lgradient_14" x1="0.7060196815172658" y1="0.06676777797658105" x2="0.6079126856324923" y2="0.9433750024850406" gradientTransform="matrix(50,0,0,450,450,50)" gradientUnits="userSpaceOnUse"><stop offset="26.521739130434785%" stop-opacity="1" style="stop-color:rgb(255,255,255)"/><stop offset="96.95652173913044%" stop-opacity="1" style="stop-color:rgb(215,216,217)"/></linearGradient><path d=" M 450 100 L 500 50 L 500 450 L 450 500 L 450 100 Z " fill="url(#_lgradient_14)"/></g><g><path d=" M 100 50 L 100 100 L 450 100 L 500 50 L 100 50 Z " fill="rgb(255,255,255)"/><path d=" M 0 450 L 50 500 L 450 500 L 400 450 L 0 450 Z " fill="rgb(255,255,255)"/></g><rect x="400" y="100" width="50" height="20" transform="matrix(1,0,0,1,0,0)" fill="rgb(199,199,199)"/></g><g style="isolation:isolate"><line x1="400" y1="450" x2="0" y2="450" vector-effect="non-scaling-stroke" stroke-width="1" stroke="rgb(187,188,189)" stroke-linejoin="miter" stroke-linecap="square" stroke-miterlimit="3"/><line x1="400" y1="450" x2="400" y2="100" vector-effect="non-scaling-stroke" stroke-width="1" stroke="rgb(187,188,189)" stroke-linejoin="miter" stroke-linecap="square" stroke-miterlimit="3"/><line x1="450" y1="500" x2="450" y2="100" vector-effect="non-scaling-stroke" stroke-width="1" stroke="rgb(187,188,189)" stroke-linejoin="miter" stroke-linecap="square" stroke-miterlimit="3"/><line x1="100" y1="400" x2="100" y2="50" vector-effect="non-scaling-stroke" stroke-width="1" stroke="rgb(187,188,189)" stroke-linejoin="miter" stroke-linecap="square" stroke-miterlimit="3"/></g></g></svg>